<?xml version="1.0" standalone="no"?>
<!DOCTYPE svg PUBLIC "-//W3C//DTD SVG 20010904//EN"
 "http://www.w3.org/TR/2001/REC-SVG-20010904/DTD/svg10.dtd">
<svg version="1.0" xmlns="http://www.w3.org/2000/svg"
 width="1024.000000pt" height="1024.000000pt" viewBox="0 0 1024.000000 1024.000000"
 preserveAspectRatio="xMidYMid meet">

<g transform="translate(0.000000,1024.000000) scale(0.100000,-0.100000)"
fill="#000000" stroke="none">
<path d="M4890 9293 c-36 -2 -137 -10 -225 -19 -1411 -140 -2632 -981 -3268
-2254 -284 -567 -410 -1075 -424 -1710 -6 -286 4 -480 38 -715 193 -1342 1040
-2504 2264 -3104 636 -312 1306 -450 2040 -420 580 24 1119 161 1641 418 1158
568 1981 1640 2228 2901 63 317 71 414 71 815 -1 385 -7 460 -61 752 -288
1560 -1486 2827 -3039 3212 -413 102 -838 144 -1265 124z m575 -394 c723 -58
1432 -341 2020 -807 149 -118 462 -431 575 -575 463 -591 725 -1238 802 -1977
17 -167 14 -545 -6 -728 -95 -882 -458 -1645 -1075 -2263 -611 -610 -1361
-969 -2261 -1081 -66 -8 -216 -13 -405 -13 -331 1 -486 16 -777 75 -479 99
-980 313 -1383 595 -707 493 -1215 1205 -1460 2045 -108 373 -159 830 -136
1219 51 854 352 1599 907 2241 99 115 341 353 444 436 522 425 1132 698 1780
798 339 52 629 63 975 35z"/>
<path d="M3245 7759 c-320 -39 -603 -182 -823 -414 -140 -147 -244 -321 -307
-508 -48 -143 -65 -255 -65 -422 0 -204 31 -364 106 -553 44 -108 283 -596
400 -814 346 -647 578 -1054 768 -1346 79 -123 96 -129 150 -55 145 199 726
1231 992 1763 208 416 262 546 301 730 25 119 25 401 0 519 -63 293 -192 527
-401 729 -200 192 -430 311 -691 357 -113 20 -325 27 -430 14z m330 -724 c114
-30 203 -82 296 -175 134 -132 192 -271 192 -460 1 -248 -130 -460 -354 -575
-100 -51 -178 -69 -299 -68 -133 0 -231 30 -342 103 -336 221 -398 684 -130
980 127 141 278 208 472 209 65 1 129 -5 165 -14z"/>
<path d="M7205 7075 c-48 -17 -100 -71 -112 -117 -6 -19 -7 -772 -5 -1765 l4
-1733 384 0 384 0 0 1750 c0 1922 5 1779 -60 1833 -17 15 -47 31 -68 37 -59
16 -478 12 -527 -5z"/>
<path d="M6115 6306 c-37 -17 -80 -62 -94 -99 -8 -20 -11 -452 -11 -1388 l0
-1359 390 0 390 0 -2 1373 -3 1373 -25 37 c-13 20 -41 45 -61 56 -34 20 -53
21 -295 21 -194 -1 -267 -4 -289 -14z"/>
<path d="M5045 5604 c-45 -23 -66 -45 -86 -89 -18 -38 -19 -91 -19 -1048 l0
-1007 393 2 392 3 0 1016 0 1015 -28 43 c-50 76 -72 81 -367 81 -212 0 -260
-3 -285 -16z"/>
<path d="M4115 4343 c-95 -50 -95 -46 -97 -495 l-2 -383 332 -3 332 -2 0 383
c0 381 0 384 -23 428 -16 31 -36 51 -67 67 -42 21 -56 22 -245 22 -163 -1
-206 -4 -230 -17z"/>
<path d="M2758 3311 c-33 -29 -33 -30 -36 -134 -3 -83 0 -113 13 -140 34 -73
-207 -67 2687 -67 2046 0 2608 3 2627 13 51 26 66 61 69 163 4 105 -6 143 -46
174 -24 20 -55 20 -2653 20 l-2629 0 -32 -29z"/>
</g>
</svg>
